<?xml version="1.0" encoding="utf-8"?>
<!-- Generator: Adobe Illustrator 26.2.1, SVG Export Plug-In . SVG Version: 6.00 Build 0)  -->
<svg version="1.1" id="Layer_1" xmlns="http://www.w3.org/2000/svg" xmlns:xlink="http://www.w3.org/1999/xlink" x="0px" y="0px"
	 viewBox="0 0 40.4 43.1" style="enable-background:new 0 0 40.4 43.1;" xml:space="preserve">
<style type="text/css">
	.st0{fill:#131313;}
	.st1{fill:#FFFFFF;}
	.st2{fill:#131313;stroke:#FFFFFF;stroke-width:0.3528;stroke-miterlimit:10;}
</style>
<g id="Layer_2_00000177470904505315671900000014208187602665647551_">
	<g id="Layer_1-2">
		<path class="st0" d="M25.6,30.9l-5.1-0.1L15,30.6l-2.1,2.1h-0.3L0.3,20.5c-0.1-0.1-0.2-0.2-0.2-0.4c0-0.1,0.1-0.3,0.2-0.4
			L19.8,0.3c0.1-0.1,0.2-0.2,0.4-0.2c0.1,0,0.3,0.1,0.4,0.2L40,19.8c0.1,0.1,0.2,0.2,0.2,0.4c0,0.1-0.1,0.3-0.2,0.4L27.6,32.9
			L25.6,30.9z"/>
		<path class="st1" d="M20.2,0.4c0.1,0,0.2,0,0.3,0.1l19.5,19.5c0.1,0.1,0.1,0.4,0,0.5L27.7,32.6l-0.1,0.1l-0.5-0.5l-1.4-1.4
			l-5.1-0.1l-5.6-0.1l-1.1,1.1l-1.1,1.1h-0.2L0.5,20.4c-0.1-0.1-0.1-0.4,0-0.5L19.9,0.5C20,0.4,20.1,0.4,20.2,0.4 M20.2,0
			c-0.2,0-0.4,0.1-0.5,0.2L0.2,19.7c-0.3,0.3-0.3,0.7,0,1c0,0,0,0,0,0l12.2,12.2l0.1,0.1H13l0.1-0.1l1.1-1.1l0.9-0.9l5.5,0.1l5,0.1
			l1.3,1.3l0.5,0.5l0.3,0.3l0.3-0.3l0.1-0.1l12.2-12.2c0.3-0.3,0.3-0.7,0-1c0,0,0,0,0,0L20.7,0.2C20.5,0.1,20.4,0,20.2,0z"/>
		<path class="st2" d="M11.7,34.3H6.4c-0.2,0-0.4-0.2-0.4-0.4V6.4c0-0.2,0.2-0.4,0.4-0.4h27.5c0.2,0,0.4,0.2,0.4,0.4v27.5
			c0,0.2-0.2,0.4-0.4,0.4h-5.2"/>
		<path class="st2" d="M19.9,42.8l-8.4-8.4c-0.1-0.1-0.1-0.4,0-0.5c0,0,0,0,0,0l3.3-3.3c0.1-0.1,0.2-0.1,0.3-0.1l5.1,0.1l5.4,0.1
			c0.1,0,0.2,0,0.2,0.1l3,3c0.1,0.1,0.1,0.4,0,0.5c0,0,0,0,0,0l-8.4,8.4C20.3,42.9,20.1,42.9,19.9,42.8z"/>
		<path class="st1" d="M12.8,17.3v-2.2c0-0.1,0-0.2-0.1-0.3c-0.1-0.1-0.2-0.1-0.3-0.1h-0.9c-0.5,0.1-0.9-0.3-1-0.8
			c0-0.1,0-0.2,0-0.2v-2.2c-0.1-0.5,0.3-0.9,0.8-1c0.1,0,0.2,0,0.3,0h1.1c0.5-0.1,0.9,0.3,1,0.8c0,0.1,0,0.2,0,0.2v1.2h-0.9v-1.1
			c0-0.1,0-0.2-0.1-0.3c-0.1-0.1-0.2-0.1-0.3-0.1h-0.6c-0.2,0-0.3,0-0.3,0.1c0,0-0.1,0.2-0.1,0.3v1.9c0,0.1,0,0.2,0.1,0.3
			c0.1,0.1,0.2,0.1,0.3,0.1h0.9c0.5-0.1,0.9,0.3,1,0.7c0,0.1,0,0.2,0,0.3v2.4c0.1,0.5-0.3,0.9-0.8,1c-0.1,0-0.2,0-0.3,0h-1.1
			c-0.5,0.1-0.9-0.3-1-0.8c0-0.1,0-0.2,0-0.3v-1.2h0.9v1.1c0,0.1,0,0.2,0.1,0.3c0.1,0.1,0.2,0.1,0.3,0.1h0.6c0.1,0,0.2,0,0.3-0.1
			C12.8,17.5,12.8,17.4,12.8,17.3z"/>
		<path class="st1" d="M17.6,10.5v0.8h-1.3v7.2h-0.9v-7.2h-1.3v-0.8H17.6z"/>
		<path class="st1" d="M21,18.4l-0.3-2h-1.6l-0.3,2h-0.9l1.2-7.9h1.4l1.4,7.9H21z M19.2,15.7h1.4l-0.7-4.5L19.2,15.7z"/>
		<path class="st1" d="M23.6,15.1v3.3h-0.9v-7.9h2.3c0.5-0.1,0.9,0.3,1,0.8c0,0.1,0,0.2,0,0.2v2.6c0,0.6-0.3,0.9-0.8,1l1.2,3.3h-0.9
			l-1.2-3.3H23.6z M23.6,11.3v3.1h1.2c0.1,0,0.2,0,0.3-0.1c0.1-0.1,0.1-0.2,0.1-0.3v-2.3c0-0.1,0-0.2-0.1-0.3
			c-0.1-0.1-0.2-0.1-0.3-0.1L23.6,11.3z"/>
		<path class="st1" d="M12.8,27.2V25c0-0.1,0-0.2-0.1-0.3c-0.1-0.1-0.2-0.1-0.3-0.1h-0.9c-0.5,0.1-0.9-0.3-1-0.8c0-0.1,0-0.2,0-0.2
			v-2.2c-0.1-0.5,0.3-0.9,0.8-1c0.1,0,0.2,0,0.3,0h1.1c0.5-0.1,0.9,0.3,1,0.8c0,0.1,0,0.2,0,0.2v1.2h-0.9v-1.1c0-0.1,0-0.2-0.1-0.3
			c-0.1-0.1-0.2-0.1-0.3-0.1h-0.6c-0.2,0-0.3,0-0.3,0.1c0,0-0.1,0.2-0.1,0.3v1.9c0,0.1,0,0.2,0.1,0.3c0.1,0.1,0.2,0.1,0.3,0.1h0.9
			c0.5-0.1,0.9,0.3,1,0.7c0,0.1,0,0.2,0,0.3v2.4c0.1,0.5-0.3,0.9-0.8,1c-0.1,0-0.2,0-0.3,0h-1.1c-0.5,0.1-0.9-0.3-1-0.8
			c0-0.1,0-0.2,0-0.3v-1.2h0.9v1.1c0,0.1,0,0.2,0.1,0.3c0.1,0.1,0.2,0.1,0.3,0.1h0.6c0.1,0,0.2,0,0.3-0.1
			C12.8,27.4,12.8,27.3,12.8,27.2z"/>
		<path class="st1" d="M17.6,20.4v0.8h-1.3v7.2h-0.9v-7.2h-1.3v-0.8H17.6z"/>
		<path class="st1" d="M20.8,20.4h0.9v6.9c0.1,0.5-0.3,0.9-0.8,1c-0.1,0-0.2,0-0.3,0h-1.3c-0.5,0.1-0.9-0.3-1-0.7c0-0.1,0-0.2,0-0.3
			v-6.9h0.9v6.8c0,0.1,0,0.2,0.1,0.3c0.1,0.1,0.2,0.1,0.3,0.1h0.8c0.1,0,0.2,0,0.3-0.1c0.1,0,0.1-0.2,0.1-0.3L20.8,20.4z"/>
		<path class="st1" d="M26.1,21.1h-2.2v2.8h1.7v0.8h-1.7v3.6H23v-7.9h3.1V21.1z"/>
		<path class="st1" d="M30,21.1h-2.2v2.8h1.7v0.8h-1.7v3.6h-0.9v-7.9H30V21.1z"/>
		<path class="st1" d="M16.4,33h-0.4v-0.5c0-0.1,0-0.1,0-0.2c0,0-0.1,0-0.2,0h-0.4c-0.1,0-0.1,0-0.2,0c0,0,0,0.1,0,0.2v2.8
			c0,0.1,0,0.1,0,0.2c0,0,0.1,0,0.2,0h0.4c0.1,0,0.1,0,0.2,0c0,0,0-0.1,0-0.2v-1.1h-0.3v-0.4h0.8v1.5c0,0.2-0.1,0.5-0.4,0.5
			c0,0-0.1,0-0.1,0h-0.6c-0.2,0-0.5-0.1-0.5-0.4c0,0,0-0.1,0-0.1v-3c0-0.2,0.1-0.5,0.4-0.5c0,0,0.1,0,0.1,0h0.6
			c0.2,0,0.5,0.1,0.5,0.4c0,0,0,0.1,0,0.1L16.4,33z"/>
		<path class="st1" d="M18,32.8h0.4v3.1H18v-0.2c-0.1,0.1-0.2,0.2-0.4,0.2h-0.3c-0.2,0-0.5-0.1-0.5-0.4c0,0,0-0.1,0-0.1v-2.1
			c0-0.2,0.1-0.5,0.4-0.5c0,0,0.1,0,0.1,0h0.3c0.2,0,0.3,0.1,0.4,0.2V32.8z M17.5,35.5h0.3c0.1,0,0.1,0,0.2-0.1c0,0,0.1-0.1,0-0.2
			v-1.9c0-0.1,0-0.1,0-0.2c0,0-0.1-0.1-0.2-0.1h-0.3c-0.1,0-0.1,0-0.2,0c0,0,0,0.1,0,0.2v1.9c0,0.1,0,0.2,0.1,0.2
			C17.5,35.5,17.5,35.5,17.5,35.5L17.5,35.5z"/>
		<path class="st1" d="M20.9,32.8h0.3c0.2,0,0.5,0.1,0.5,0.4c0,0,0,0.1,0,0.1v2.6h-0.4v-2.5c0-0.1,0-0.2-0.1-0.2c0,0-0.1,0-0.1,0
			h-0.3c-0.1,0-0.1,0-0.2,0.1c0,0.1-0.1,0.1,0,0.2v2.5h-0.5v-2.5c0-0.1,0-0.1,0-0.2c0,0-0.1,0-0.2,0h-0.3c-0.1,0-0.1,0-0.2,0.1
			c0,0.1-0.1,0.1,0,0.2v2.5H19v-3.1h0.4V33c0.1-0.1,0.2-0.2,0.4-0.2h0.3c0.2,0,0.4,0.1,0.5,0.3C20.6,32.9,20.7,32.8,20.9,32.8z"/>
		<path class="st1" d="M22.7,32.8h0.6c0.2,0,0.5,0.1,0.5,0.4c0,0,0,0.1,0,0.1v1.2h-1.1v0.8c0,0.1,0,0.1,0,0.2c0,0,0.1,0,0.2,0h0.3
			c0.1,0,0.2,0,0.2-0.1c0,0,0-0.1,0-0.1V35h0.4v0.4c0,0.2-0.1,0.5-0.4,0.5c0,0-0.1,0-0.1,0h-0.6c-0.2,0-0.5-0.1-0.5-0.4
			c0,0,0-0.1,0-0.1v-2.1c0-0.2,0.1-0.5,0.4-0.5C22.6,32.8,22.7,32.8,22.7,32.8z M22.6,34.1h0.7v-0.7c0-0.1,0-0.2-0.1-0.2
			c0,0-0.1,0-0.1,0h-0.3c-0.1,0-0.2,0-0.2,0.1c0,0,0,0.1,0,0.1L22.6,34.1z"/>
		<path class="st1" d="M25.3,35.3v-0.6c0-0.1,0-0.1,0-0.2c0,0-0.1,0-0.2,0h-0.3c-0.2,0-0.5-0.1-0.5-0.4c0,0,0-0.1,0-0.1v-0.7
			c0-0.2,0.1-0.5,0.4-0.5c0,0,0.1,0,0.1,0h0.4c0.2,0,0.5,0.1,0.5,0.4c0,0,0,0.1,0,0.1v0.3h-0.4v-0.2c0-0.1,0-0.2-0.1-0.2
			c0,0-0.1,0-0.1,0h-0.2c-0.1,0-0.1,0-0.2,0c0,0,0,0.1,0,0.2V34c0,0.1,0,0.1,0,0.2c0,0,0.1,0,0.2,0h0.3c0.2,0,0.5,0.1,0.5,0.4
			c0,0,0,0.1,0,0.1v0.7c0,0.2-0.1,0.5-0.4,0.5c0,0-0.1,0-0.1,0h-0.4c-0.2,0-0.5-0.1-0.5-0.4c0,0,0-0.1,0-0.1v-0.3h0.4v0.2
			c0,0.1,0,0.2,0.1,0.2c0,0,0.1,0,0.1,0h0.2c0.1,0,0.1,0,0.2,0C25.2,35.4,25.3,35.4,25.3,35.3z"/>
		<polygon class="st1" points="30.3,14.4 32.2,14.1 30.3,13.8 30.8,13.1 30.1,13.5 29.8,11.6 29.4,13.5 28.7,13.1 29.2,13.8 
			27.3,14.1 29.2,14.4 28.7,15.1 29.4,14.7 29.8,16.6 30.1,14.7 30.8,15.1 		"/>
	</g>
</g>
</svg>
